<svg id="svgexport-7_-_2023-01-29T104649.898" data-name="svgexport-7 - 2023-01-29T104649.898" xmlns="http://www.w3.org/2000/svg" width="22.634" height="27.484" viewBox="0 0 22.634 27.484">
  <path id="Path_1395" data-name="Path 1395" d="M22.165,28.762l-1.42,4.5a.323.323,0,0,1-.308.226h-5.82a.323.323,0,0,1-.308-.421L16.6,25.8c.078.182.149.385.219.587a3.147,3.147,0,0,0,1.189,1.852,3.125,3.125,0,0,0,2.176.1,3.19,3.19,0,0,1,1.2-.092A2.427,2.427,0,0,1,22.165,28.762ZM32.031,25.8q-.12.29-.22.588a3.148,3.148,0,0,1-1.188,1.852,3.121,3.121,0,0,1-2.176.1,3.213,3.213,0,0,0-1.2-.092,2.439,2.439,0,0,0-.778.512l1.419,4.5a.323.323,0,0,0,.308.226h5.82a.323.323,0,0,0,.308-.421Zm-.924-8.482a6.79,6.79,0,1,1-6.79-6.79A6.8,6.8,0,0,1,31.107,17.317Zm-2.6-1.342a.324.324,0,0,0-.258-.217l-2.511-.384-1.126-2.4a.324.324,0,0,0-.585,0l-1.126,2.4-2.511.384a.323.323,0,0,0-.183.545l1.817,1.862L21.415,20.8a.323.323,0,0,0,.462.361l2.44-1.25,2.439,1.25a.32.32,0,0,0,.346-.032.324.324,0,0,0,.116-.328l-.607-2.636L28.428,16.3A.322.322,0,0,0,28.5,15.975ZM34,19.914a4.007,4.007,0,0,0,.071,1.774,2.393,2.393,0,0,1,.047,1.288c-.154.265-.687.451-1.158.614a3.953,3.953,0,0,0-1.556.814,3.953,3.953,0,0,0-.815,1.558c-.164.471-.349,1-.614,1.157a.709.709,0,0,1-.38.074,5.289,5.289,0,0,1-.908-.121,6.384,6.384,0,0,0-1.164-.146,2.355,2.355,0,0,0-.609.074,3.9,3.9,0,0,0-1.461.928c-.4.347-.815.706-1.138.706s-.737-.358-1.138-.706A3.884,3.884,0,0,0,21.72,27a2.35,2.35,0,0,0-.613-.074,6.37,6.37,0,0,0-1.162.146,5.328,5.328,0,0,1-.909.121.707.707,0,0,1-.379-.074c-.265-.154-.451-.687-.615-1.158a3.952,3.952,0,0,0-.814-1.556,3.954,3.954,0,0,0-1.558-.815c-.471-.164-1-.349-1.157-.614a2.4,2.4,0,0,1,.047-1.288,4.017,4.017,0,0,0,.071-1.775,3.893,3.893,0,0,0-.927-1.459c-.347-.4-.7-.816-.7-1.138s.358-.737.706-1.138a3.884,3.884,0,0,0,.927-1.459,4.007,4.007,0,0,0-.071-1.774,2.393,2.393,0,0,1-.047-1.288c.154-.265.687-.451,1.158-.614a3.952,3.952,0,0,0,1.556-.814,3.954,3.954,0,0,0,.815-1.558c.164-.471.349-1,.614-1.157a.709.709,0,0,1,.381-.075,5.268,5.268,0,0,1,.907.122,6.387,6.387,0,0,0,1.164.146,2.347,2.347,0,0,0,.606-.073,3.889,3.889,0,0,0,1.464-.929c.4-.347.816-.705,1.138-.705s.737.358,1.138.706a3.884,3.884,0,0,0,1.459.927,2.355,2.355,0,0,0,.612.074,6.424,6.424,0,0,0,1.162-.146,5.3,5.3,0,0,1,.91-.122.708.708,0,0,1,.379.074c.265.154.451.687.615,1.158a3.952,3.952,0,0,0,.814,1.556,3.953,3.953,0,0,0,1.558.815c.471.164,1,.349,1.157.614a2.4,2.4,0,0,1-.047,1.288A4.018,4.018,0,0,0,34,14.72a3.893,3.893,0,0,0,.927,1.459c.347.4.705.816.705,1.138s-.358.737-.706,1.138A3.889,3.889,0,0,0,34,19.914Zm-1.6-2.6A8.083,8.083,0,1,0,24.317,25.4,8.093,8.093,0,0,0,32.4,17.317Z" transform="translate(-13 -6)" fill="#cc1f27"/>
</svg>
