<svg id="svgexport-7_-_2023-01-29T104745.434" data-name="svgexport-7 - 2023-01-29T104745.434" xmlns="http://www.w3.org/2000/svg" width="30.071" height="17.606" viewBox="0 0 30.071 17.606">
  <ellipse id="Ellipse_70" data-name="Ellipse 70" cx="2.373" cy="2.062" rx="2.373" ry="2.062" transform="matrix(0.731, -0.682, 0.682, 0.731, 7.847, 14.588)" fill="#cc1f27"/>
  <ellipse id="Ellipse_71" data-name="Ellipse 71" cx="2.373" cy="2.062" rx="2.373" ry="2.062" transform="matrix(0.731, -0.682, 0.682, 0.731, 20.534, 14.589)" fill="#cc1f27"/>
  <rect id="Rectangle_2840" data-name="Rectangle 2840" width="2.004" height="2.004" rx="1.002" transform="translate(0.332 4.046)" fill="#cc1f27"/>
  <path id="Path_1396" data-name="Path 1396" d="M20.1,128.029a4.021,4.021,0,0,1,3.806-3.159,2.845,2.845,0,0,1,2.927,2.965c1.861.049,2.379-2.4,2.379-2.4.157-.685.391-2.021.587-3.333a2.216,2.216,0,0,0-.143-1.2,20.547,20.547,0,0,0-1.757-3.255,3.573,3.573,0,0,0-2.964-1.554c-.737-.012-1.46-.019-2.007-.019l0,0a2.29,2.29,0,0,0-2.135-2.189c-.784-.07-3.892-.121-5.383-.121-.593,0-1.443.008-2.3.022v0H2.758a1,1,0,0,0-1,1v0a1,1,0,0,0,1,1H4.838a1,1,0,0,1,.924.994v.005a1,1,0,0,1-1,1.005H3.692a1,1,0,0,0,0,2H4.762a1,1,0,1,1,0,2h-4a1,1,0,1,0,0,2h4a1,1,0,1,1,0,2H3.525a1,1,0,0,0,0,2l3.947,0,.328-.817a4.009,4.009,0,0,1,3.424-2.117,2.852,2.852,0,0,1,2.918,3.161H20.1m-9.94-9.777H8.819a.006.006,0,0,0-.005,0l-.124.88a0,0,0,0,0,0,0l0,0h1a.33.33,0,0,1,.334.389.463.463,0,0,1-.444.389h-1a.005.005,0,0,0-.005,0l-.18,1.279a.463.463,0,0,1-.444.389.33.33,0,0,1-.334-.389l.466-3.316a.491.491,0,0,1,.469-.411h1.715a.33.33,0,0,1,.334.389.462.462,0,0,1-.442.387Zm3.594-.512a.912.912,0,0,1,.282.469,1.618,1.618,0,0,1,.023.628,1.715,1.715,0,0,1-.383.883,1.232,1.232,0,0,1-.474.344,0,0,0,0,0,0,.006l.333.962a.448.448,0,0,1-.428.559h-.019a.328.328,0,0,1-.319-.219l-.4-1.174a.006.006,0,0,0-.005,0h-.857a.006.006,0,0,0-.005,0l-.141,1a.463.463,0,0,1-.444.389.33.33,0,0,1-.334-.389l.466-3.316a.49.49,0,0,1,.469-.411h1.326A1.547,1.547,0,0,1,13.758,117.742Zm3.65.1a.432.432,0,0,1-.414.363H15.451a.006.006,0,0,0-.005,0l-.123.871a0,0,0,0,0,0,0l0,0h1.2a.308.308,0,0,1,.312.363.432.432,0,0,1-.414.363h-1.2a.006.006,0,0,0-.005,0l-.147,1.048a.006.006,0,0,0,.005.006h1.541a.308.308,0,0,1,.312.363.432.432,0,0,1-.414.363H14.6a.352.352,0,0,1-.352-.411l.463-3.293a.491.491,0,0,1,.469-.411H17.1a.308.308,0,0,1,.311.36Zm3.2,0a.432.432,0,0,1-.414.363H18.655a.006.006,0,0,0-.005,0l-.122.871a0,0,0,0,0,0,0l0,0h1.2a.308.308,0,0,1,.312.363.432.432,0,0,1-.414.363h-1.2a.006.006,0,0,0-.005,0l-.147,1.048a.006.006,0,0,0,.005.006h1.541a.308.308,0,0,1,.312.363.432.432,0,0,1-.414.363H17.809a.352.352,0,0,1-.352-.411l.463-3.293a.491.491,0,0,1,.469-.411H20.3a.308.308,0,0,1,.311.36Zm2.23-.376c.524,0,1.2.007,1.883.018a2.382,2.382,0,0,1,1.98,1.039,18.918,18.918,0,0,1,1.245,2.177.673.673,0,0,1-.629.908h-5Z" transform="translate(0.24 -113.76)" fill="#cc1f27"/>
  <path id="Path_1397" data-name="Path 1397" d="M202.577,190.74h-.927l.176-1.27h.926a.513.513,0,0,1,.569.635A.726.726,0,0,1,202.577,190.74Z" transform="translate(-189.804 -185.028)" fill="#cc1f27"/>
</svg>
