<svg id="svgexport-7_-_2023-01-29T105618.148" data-name="svgexport-7 - 2023-01-29T105618.148" xmlns="http://www.w3.org/2000/svg" width="26.829" height="27.206" viewBox="0 0 26.829 27.206">
  <path id="Path_1398" data-name="Path 1398" d="M19.588,13.46a6.73,6.73,0,1,0-6.73-6.73A6.737,6.737,0,0,0,19.588,13.46Zm-.8-10.686V2.591a.8.8,0,0,1,1.594,0v.184a2.107,2.107,0,0,1,1.662,2.057.8.8,0,1,1-1.594,0,.511.511,0,0,0-.51-.51h-.715a.51.51,0,0,0-.3.92l.663.491L21.2,6.925A2.113,2.113,0,0,1,22.051,8.6V8.61a2.105,2.105,0,0,1-1.666,2.073v.187a.8.8,0,1,1-1.594,0v-.184A2.1,2.1,0,0,1,17.13,8.641a.8.8,0,0,1,.792-.8h.005a.8.8,0,0,1,.8.792.509.509,0,0,0,.513.507l.714,0a.51.51,0,0,0,.507-.514V8.613a.512.512,0,0,0-.207-.406l-.663-.49L17.976,6.524a2.1,2.1,0,0,1,.815-3.749ZM8.683,17.29a.743.743,0,0,0-1.015-.272L3.92,19.182A.744.744,0,0,0,3.648,20.2L7.48,26.834a.743.743,0,0,0,1.015.272l3.749-2.165a.742.742,0,0,0,.272-1.015Zm21.482-1.325a1.117,1.117,0,0,0-1.56-.253L23.94,19.074a2.816,2.816,0,0,1-.336.246,2.892,2.892,0,0,1-1.546.443H18.24a.8.8,0,0,1,0-1.594h4.083a1.056,1.056,0,0,0,1.055-1.1A1.073,1.073,0,0,0,22.3,16.056H19.19a5.17,5.17,0,0,0-.688-.609,5.1,5.1,0,0,0-3.036-1A5.624,5.624,0,0,0,10.6,17.423l3.26,5.647h6.116a6.865,6.865,0,0,0,3.425-.906,13.711,13.711,0,0,0,1.166-.757c1.755-1.26,5.342-3.879,5.344-3.881a1.117,1.117,0,0,0,.254-1.561Z" transform="translate(-3.548)" fill="#cc1f27"/>
</svg>
