<svg xmlns="http://www.w3.org/2000/svg" width="28.211" height="28.211" viewBox="0 0 28.211 28.211">
  <g id="svgexport-6_-_2022-09-15T162540.529" data-name="svgexport-6 - 2022-09-15T162540.529" transform="translate(0 -0.301)">
    <g id="surface1" transform="translate(0 0.301)">
      <path id="Path_1796" data-name="Path 1796" d="M454.193,66.641l-5.088-5.1V81.971h6.809V70.78A5.838,5.838,0,0,0,454.193,66.641Zm0,0" transform="translate(-427.704 -58.625)" fill="#ffb782"/>
      <path id="Path_1797" data-name="Path 1797" d="M3.977,19.932.13,9.947A1.945,1.945,0,0,1,1.246,7.432L19.4.439a1.945,1.945,0,0,1,2.514,1.116l3.847,9.986a1.945,1.945,0,0,1-1.116,2.515L6.492,21.049A1.946,1.946,0,0,1,3.977,19.932Zm0,0" transform="translate(0 -0.308)" fill="#de4c3c"/>
      <path id="Path_1798" data-name="Path 1798" d="M53.964,101.961,32.2,110.4l1.45,3.763,21.77-8.434Zm0,0" transform="translate(-30.661 -97.117)" fill="#7a4930"/>
      <path id="Path_1799" data-name="Path 1799" d="M0,12.947V2.246A1.946,1.946,0,0,1,1.949.3H21.405a1.946,1.946,0,0,1,1.946,1.946v10.7a1.946,1.946,0,0,1-1.946,1.946H1.949A1.946,1.946,0,0,1,0,12.947Zm0,0" transform="translate(-0.004 -0.301)" fill="#4398d1"/>
      <path id="Path_1800" data-name="Path 1800" d="M116.178.3h-2.067L99.52,14.893h16.659a1.946,1.946,0,0,0,1.946-1.946V2.246A1.946,1.946,0,0,0,116.178.3Zm0,0" transform="translate(-94.777 -0.301)" fill="#3e8cc7"/>
      <path id="Path_1801" data-name="Path 1801" d="M40.832,163.609h1.946v.973H40.832Zm0,0" transform="translate(-38.886 -155.827)" fill="#5eb3d1"/>
      <path id="Path_1802" data-name="Path 1802" d="M40.832,224.852h1.946v.973H40.832Zm0,0" transform="translate(-38.886 -214.151)" fill="#5eb3d1"/>
      <path id="Path_1803" data-name="Path 1803" d="M224.555,224.852H226.5v.973h-1.946Zm0,0" transform="translate(-213.854 -214.151)" fill="#5eb3d1"/>
      <path id="Path_1804" data-name="Path 1804" d="M102.074,163.609h1.945v.973h-1.945Zm0,0" transform="translate(-97.21 -155.827)" fill="#5eb3d1"/>
      <path id="Path_1805" data-name="Path 1805" d="M163.313,163.609h1.946v.973h-1.946Zm0,0" transform="translate(-155.531 -155.827)" fill="#5eb3d1"/>
      <path id="Path_1806" data-name="Path 1806" d="M224.555,163.609H226.5v.973h-1.946Zm0,0" transform="translate(-213.854 -155.827)" fill="#5eb3d1"/>
      <path id="Path_1807" data-name="Path 1807" d="M418.484,41.129h.973v1.459h-.973Zm0,0" transform="translate(-398.542 -39.183)" fill="#5eb3d1"/>
      <path id="Path_1808" data-name="Path 1808" d="M377.656,41.129h.973v1.459h-.973Zm0,0" transform="translate(-359.659 -39.183)" fill="#5eb3d1"/>
      <path id="Path_1809" data-name="Path 1809" d="M336.828,41.129h.973v1.459h-.973Zm0,0" transform="translate(-320.777 -39.183)" fill="#5eb3d1"/>
      <path id="Path_1810" data-name="Path 1810" d="M296,41.129h.973v1.459H296Zm0,0" transform="translate(-281.898 -39.183)" fill="#5eb3d1"/>
      <path id="Path_1811" data-name="Path 1811" d="M408.277,490.23h8.755v4.864h-8.755Zm0,0" transform="translate(-388.821 -466.883)" fill="#88b337"/>
      <path id="Path_1812" data-name="Path 1812" d="M306.438,172.4a2.109,2.109,0,0,0-3.045,2.916l3.986,4.348a6.56,6.56,0,0,0,.133,6.73l.354.566h6.323v-6.809Zm0,0" transform="translate(-288.409 -163.612)" fill="#ffb782"/>
      <path id="Path_1813" data-name="Path 1813" d="M438.9,520.852h.973v.973H438.9Zm0,0" transform="translate(-417.983 -496.046)" fill="#6b962a"/>
      <path id="Path_1814" data-name="Path 1814" d="M40.832,44.242V41.907a.778.778,0,0,1,.778-.778h2.335a.778.778,0,0,1,.778.778v2.335a.778.778,0,0,1-.778.778H41.61A.778.778,0,0,1,40.832,44.242Zm0,0" transform="translate(-38.886 -39.183)" fill="#fdb62f"/>
      <path id="Path_1815" data-name="Path 1815" d="M40.832,71.75h1.459v.973H40.832Zm0,0" transform="translate(-38.886 -68.345)" fill="#fd7b2f"/>
      <path id="Path_1816" data-name="Path 1816" d="M91.867,71.75h1.459v.973H91.867Zm0,0" transform="translate(-87.489 -68.345)" fill="#fd7b2f"/>
      <path id="Path_1817" data-name="Path 1817" d="M482.275,289.132a.485.485,0,0,1-.344-.143l-1.946-1.946a.486.486,0,0,1,.688-.688l1.946,1.946a.486.486,0,0,1-.344.83Zm0,0" transform="translate(-456.983 -272.595)" fill="#f2a46f"/>
    </g>
  </g>
</svg>
